<svg id="Layer_1" height="512" viewBox="0 0 64 64" width="512" xmlns="http://www.w3.org/2000/svg" data-name="Layer 1"><path d="m32 1c-.8 0-1.444.412-1.444.92v14.48h2.888v-14.48c0-.508-.644-.92-1.444-.92z" fill="#826450"/><path d="m21.783 11.012a15.879 15.879 0 0 1 4.9.777 17.172 17.172 0 0 0 10.624 0 15.879 15.879 0 0 1 4.905-.777c10.308 0 18.665 9.947 18.665 22.216s-11.445 29.772-23.011 29.772a9.756 9.756 0 0 1 -5.866-1.875 9.756 9.756 0 0 1 -5.866 1.875c-11.566 0-23.016-17.5-23.016-29.772s8.357-22.216 18.665-22.216z" fill="#d53232"/><circle cx="16.334" cy="27.223" fill="#e45555" r="6"/></svg>