<svg 
	enable-background="new 0 0 65 65" 
	viewBox="0 0 65 65" xmlns="http://www.w3.org/2000/svg">
<g id="Layer_1"><g>
<circle cx="44.2" cy="28.9" fill="#374a44" r="2.7"/>
<circle cx="20.8" cy="28.9" fill="#374a44" r="2.7"/>
<path d="m32.5.5c-17.6 0-32 14.4-32 32v30c0 .8.5 1.5 1.2 1.8.8.3 1.6.1 2.2-.4l6.1-6.1 6.1 6.1c.4.4.9.6 1.4.6s1-.2 1.4-.6l6.1-6.1 6.1 6.1c.4.4.9.6 1.4.6s1-.2 1.4-.6l6.1-6.1 6.1 6.1c.4.4.9.6 1.4.6s1-.2 1.4-.6l6.1-6.1 6.1 6.1c.4.4.9.6 1.4.6.3 0 .5 0 .8-.2.7-.3 1.2-1 1.2-1.8v-30c0-17.6-14.4-32-32-32zm-11.7 35.1c-3.7 0-6.7-3-6.7-6.7s3-6.7 6.7-6.7 6.7 3 6.7 6.7-3 6.7-6.7 6.7zm23.4 0c-3.7 0-6.7-3-6.7-6.7s3-6.7 6.7-6.7 6.7 3 6.7 6.7-3 6.7-6.7 6.7z" fill="#00FF41"/></g></g>
<g id="Layer_2">
<g display="inline">
<path d="m32.5.5c-17.6 0-32 14.4-32 32v30c0 .8.5 1.5 1.2 1.8s1.6.1 2.2-.4l6.1-6.1 6.1 6.1c.4.4.9.6 1.4.6.5 0 1-.2 1.4-.6l6.1-6.1 6.1 6.1c.4.4.9.6 1.4.6.5 0 1-.2 1.4-.6l6.1-6.1 6.1 6.1c.4.4.9.6 1.4.6.5 0 1-.2 1.4-.6l6.1-6.1 6.1 6.1c.4.4.9.6 1.4.6.3 0 .5 0 .8-.2.7-.3 1.2-1 1.2-1.8v-30c0-17.6-14.4-32-32-32zm28 57.2-4.1-4.1c-.4-.4-.9-.6-1.4-.6-.5 0-1 .2-1.4.6l-6.1 6.1-6.1-6.1c-.4-.4-.9-.6-1.4-.6-.5 0-1 .2-1.4.6l-6.1 6.1-6.1-6.1c-.4-.4-.9-.6-1.4-.6-.5 0-1 .2-1.4.6l-6.1 6.1-6.1-6.1c-.4-.4-.9-.6-1.4-.6-.5 0-1 .2-1.4.6l-4.1 4.1v-25.2c0-15.4 12.6-28 28-28s28 12.6 28 28z"/><path d="m20.8 22.1c-3.7 0-6.7 3-6.7 6.7s3 6.7 6.7 6.7 6.7-3 6.7-6.7-3-6.7-6.7-6.7zm0 9.5c-1.5 0-2.7-1.2-2.7-2.7s1.2-2.7 2.7-2.7 2.7 1.2 2.7 2.7-1.2 2.7-2.7 2.7z"/><path d="m44.2 22.1c-3.7 0-6.7 3-6.7 6.7s3 6.7 6.7 6.7 6.7-3 6.7-6.7-3-6.7-6.7-6.7zm0 9.5c-1.5 0-2.7-1.2-2.7-2.7s1.2-2.7 2.7-2.7 2.7 1.2 2.7 2.7-1.2 2.7-2.7 2.7z"/></g></g><g id="Layer_3" >
<g display="inline">
<g><path d="m62.5 64.5c-.5 0-1-.2-1.4-.6l-6.1-6.1-6.1 6.1c-.4.4-.9.6-1.4.6-.5 0-1-.2-1.4-.6l-6.1-6.1-6.1 6.1c-.4.4-.9.6-1.4.6-.5 0-1-.2-1.4-.6l-6.1-6.1-6.1 6.1c-.4.4-.9.6-1.4.6-.5 0-1-.2-1.4-.6l-6.1-6.1-6.1 6.1c-.6.6-1.4.7-2.2.4-.7-.3-1.2-1-1.2-1.8v-30c0-17.6 14.4-32 32-32s32 14.4 32 32v30c0 .8-.5 1.5-1.2 1.8-.3.2-.5.2-.8.2zm-22.5-11.5c.5 0 1 .2 1.4.6l6.1 6.1 6.1-6.1c.4-.4.9-.6 1.4-.6.5 0 1 .2 1.4.6l4.1 4.1v-25.2c0-15.4-12.6-28-28-28s-28 12.6-28 28v25.2l4.1-4.1c.4-.4.9-.6 1.4-.6.5 0 1 .2 1.4.6l6.1 6.1 6.1-6.1c.4-.4.9-.6 1.4-.6.5 0 1 .2 1.4.6l6.1 6.1 6.1-6.1c.4-.4.9-.6 1.4-.6z" fill="#00FF41"/></g><g id="XMLID_404_">
<g id="XMLID_408_"><g id="XMLID_409_"><g id="XMLID_410_"><path d="m20.8 35.6c-3.7 0-6.7-3-6.7-6.7s3-6.7 6.7-6.7 6.7 3 6.7 6.7-3 6.7-6.7 6.7zm0-9.5c-1.5 0-2.7 1.2-2.7 2.7s1.2 2.7 2.7 2.7 2.7-1.2 2.7-2.7-1.2-2.7-2.7-2.7z" fill="#f5f5f5"/></g></g></g>
<g id="XMLID_405_"><g id="XMLID_406_"><g id="XMLID_407_">
<path d="m44.2 35.6c-3.7 0-6.7-3-6.7-6.7s3-6.7 6.7-6.7 6.7 3 6.7 6.7-3 6.7-6.7 6.7zm0-9.5c-1.5 0-2.7 1.2-2.7 2.7s1.2 2.7 2.7 2.7 2.7-1.2 2.7-2.7-1.2-2.7-2.7-2.7z" fill="#f5f5f5"/></g></g></g></g></g></g>
</svg>