<svg enable-background="new 0 0 512 512" viewBox="0 0 512 512" xmlns="http://www.w3.org/2000/svg"><g id="_x33_0_Cherry"/><g id="_x32_9_Banana"/><g id="_x32_8_Strawberry"/><g id="_x32_7_Blueberry"/><g id="_x32_6_Raspberry"/><g id="_x32_5_Grape"/><g id="_x32_4_Broccoli"/><g id="_x32_3_Tomato"/><g id="_x32_2_Eggplant"/><g id="_x32_1_Corn"/><g id="_x32_0_Carrot"/><g id="_x31_9_Radish"/><g id="_x31_8_Peach"/><g id="_x31_7_Pineapple"/><g id="_x31_6_Pomegranate"/><g id="_x31_5_Melon"><g><g><path d="m235.4 31.1h41.2v123.6h-41.2z" fill="#da8558"/></g><g><circle cx="256" cy="300.8" fill="#dfe899" r="211.2"/></g><g><circle cx="182" cy="220.7" fill="#cacc75" r="15.5"/></g><g><circle cx="219.1" cy="190.6" fill="#cacc75" r="10.3"/></g><g><circle cx="322" cy="439.5" fill="#cacc75" r="15.5"/></g><g><circle cx="354.3" cy="399.1" fill="#cacc75" r="10.3"/></g><g><circle cx="279.7" cy="424.1" fill="#cacc75" r="10.3"/></g><g><path d="m127.2 300.8c0-102.5 73.1-188 170-207.2-13.3-2.6-27.1-4-41.2-4-116.6 0-211.2 94.6-211.2 211.2s94.6 211.2 211.2 211.2c14.1 0 27.9-1.4 41.2-4-96.9-19.2-170-104.7-170-207.2z" fill="#d2d884"/></g><g><g><path d="m305.5 41.8c-36.9-5.5-70.6 29.1-108.1 16.4-8.1-2.7-13.5-10.3-13.5-18.8v-.4c0-12.1 10.7-21.5 22.6-19.7 36.9 5.5 70.6-29.1 108.1-16.4 8.1 2.7 13.5 10.3 13.5 18.8v.4c0 12.1-10.7 21.5-22.6 19.7z" fill="#e6ab8a"/></g></g><g><path d="m235.4 30.5c0-6.5 3-12.3 7.7-16.1-12 3.9-24.1 6.6-36.6 4.8-11.9-1.8-22.6 7.6-22.6 19.7v.4c0 8.5 5.4 16.1 13.5 18.8 20.3 6.9 39.5-.1 58.7-7.1-11.5.1-20.7-9.1-20.7-20.5z" fill="#df9774"/></g><g><g><path d="m416.8 363.6c-.8 0-1.6-.1-2.4-.4-3.9-1.3-6-5.6-4.6-9.5 5.8-17 8.8-34.7 8.8-52.8 0-28.6-7.6-56.7-21.9-81.4-2.1-3.6-.9-8.2 2.7-10.3s8.2-.9 10.3 2.7c15.6 26.9 23.9 57.7 23.9 88.9 0 19.7-3.2 39.2-9.6 57.7-1.2 3.1-4.1 5.1-7.2 5.1z" fill="#f0f4ba"/></g><g><path d="m364.7 177.7c-1.7 0-3.4-.6-4.8-1.7-16-13.3-34-23.3-53.6-29.7-3.9-1.3-6.1-5.5-4.8-9.5 1.3-3.9 5.5-6.1 9.5-4.8 21.5 7 41.2 17.9 58.6 32.5 3.2 2.7 3.6 7.4 1 10.6-1.6 1.7-3.7 2.6-5.9 2.6z" fill="#f0f4ba"/></g><g><circle cx="386.6" cy="192.1" fill="#f0f4ba" r="7.7"/></g></g></g></g><g id="_x31_4_Mango"/><g id="_x31_3_Watermelon"/><g id="_x31_2_Papika"/><g id="_x31_1_Potato"/><g id="_x31_0_Garlic"/><g id="_x30_9_Onion"/><g id="_x30_8_Sweet_Potato"/><g id="_x30_7_Pumpkin"/><g id="_x30_6_Avocado"/><g id="_x30_5_Kiwi"/><g id="_x30_4_Pear"/><g id="_x30_3_Lemon"/><g id="_x30_2_Orange"/><g id="_x30_1_Apple"/></svg>