<svg id="Strawberry" enable-background="new 0 0 64 64" viewBox="0 0 64 64" xmlns="http://www.w3.org/2000/svg"><g><g><path d="m34.6867 13.25279c-.50316 2.80278.30861 5.14522 1.00558 5.73432.67235.56828 2.97175.97022 5.5394.13308 1.60564-.52345 3.31617-1.53142 4.79932-3.28618 1.38931-1.64369 2.09933-3.37495 2.3881-4.9603.51248-2.8139-.30205-5.16843-1.00103-5.75924-.68302-.57731-3.04493-.98297-5.66152-.0925-1.56998.53435-3.23164 1.53522-4.67727 3.2456-1.39662 1.65226-2.10679 3.393-2.39258 4.98522z" fill="#75d64c"/><path d="m15.58089 10.87371c.28877 1.58535.99879 3.31661 2.3881 4.9603 1.48323 1.75476 3.19368 2.76273 4.79932 3.28618 2.56765.83714 4.86712.4352 5.53947-.13308.69689-.58909 1.50874-2.93154 1.00558-5.73432-.28586-1.59222-.99603-3.33296-2.39257-4.98522-1.44571-1.71038-3.10737-2.71126-4.67728-3.2456-2.61659-.89047-4.97858-.48481-5.66159.0925-.69891.59082-1.51351 2.94534-1.00103 5.75924z" fill="#75d64c"/><path d="m27.61647 14.58024c1.42353 2.3692 3.48924 3.58413 4.38356 3.58413.9152-.00001 3.05726-1.27243 4.48231-3.75227.80293-1.39723 1.37823-3.17775 1.37823-5.32995 0-2.29759-.65567-4.17159-1.54399-5.60786-1.42061-2.2969-3.4362-3.47429-4.31656-3.47429-.91253 0-3.04466 1.26492-4.46971 3.73032-.80953 1.4005-1.39088 3.18838-1.39088 5.35184 0 2.23949.62293 4.07655 1.47704 5.49808z" fill="#9ce370"/></g><g><path d="m32 13.64949c13.13876 0 23.08452 6.15524 23.08452 19.76437s-10.33529 30.58614-23.08452 30.58614-23.08452-16.97701-23.08452-30.58614 9.94576-19.76437 23.08452-19.76437z" fill="#f7524b"/><g fill="#f2aaaa"><ellipse cx="38.526" cy="23.978" rx="2.401" ry="2.653"/><ellipse cx="25.474" cy="23.978" rx="2.401" ry="2.653"/><ellipse cx="45.051" cy="34.161" rx="2.401" ry="2.653"/><ellipse cx="32" cy="34.161" rx="2.401" ry="2.653"/><ellipse cx="18.949" cy="34.161" rx="2.401" ry="2.653"/><ellipse cx="38.526" cy="44.344" rx="2.401" ry="2.653"/><ellipse cx="25.474" cy="44.344" rx="2.401" ry="2.653"/><ellipse cx="32" cy="54.527" rx="2.401" ry="2.653"/></g><path d="m31.99452 13.65409c.19552 0 .37888 0 .5744.01132-5.37767 4.30937-8.89764 11.50296-8.89764 19.63536 0 13.18832 9.25213 23.87688 20.64313 23.87688.45221 0 .90442-.01132 1.3444-.05654-3.82552 4.15101-8.55546 6.87693-13.66429 6.87693-12.74763 0-23.07531-16.97738-23.07531-30.58419 0-13.60674 9.93657-19.75977 23.07531-19.75976z" opacity=".15"/></g></g></svg>