<svg 
    id="Layer_1" 
    enable-background="new 0 0 512 512" 
    height="512" 
    viewBox="0 0 512 512" 
    width="512" xmlns="http://www.w3.org/2000/svg"
>
    <g clip-rule="evenodd" fill-rule="evenodd">
        <path 
            d="m0 256.215c0-141.031 115.184-256.215 256.23-256.215 140.58 0 255.77 115.184 255.77 256.215v207.713c0 32.199-22.231 44.433-44.901 15.873-21.763-27.216-38.09-63.946-51.244-63.946-21.311 0-37.184 96.146-79.82 96.146-42.62 0-58.493-96.146-79.804-96.146-21.779 0-37.645 96.146-80.272 96.146s-58.501-96.146-79.819-96.146c-13.147 0-29.474 36.73-51.245 63.946-22.678 28.559-44.895 16.326-44.895-15.873z" fill="#00FFFF"/><path d="m344.206 175.958c30.84 0 55.774 24.935 55.774 56.229 0 30.84-24.935 55.775-55.774 55.775-31.294 0-56.244-24.936-56.244-55.775 0-31.294 24.95-56.229 56.244-56.229z" 
            fill="#f1f0f0"
        />
        <path 
            d="m168.248 175.958c-31.294 0-56.236 24.935-56.236 56.229 0 30.84 24.942 55.775 56.236 55.775 30.833 0 55.775-24.936 55.775-55.775 0-31.294-24.942-56.229-55.775-56.229z" 
            fill="#f1f0f0"
        />
        <g fill="#0b1319">
            <path d="m168.248 208.15c13.147 0 23.575 10.436 23.575 24.037 0 13.155-10.428 24.028-23.575 24.028-13.608 0-24.037-10.874-24.037-24.028 0-13.601 10.429-24.037 24.037-24.037z"/>    
            <path d="m344.206 208.15c13.154 0 23.575 10.436 23.575 24.037 0 13.155-10.421 24.028-23.575 24.028-13.608 0-24.045-10.874-24.045-24.028 0-13.601 10.437-24.037 24.045-24.037z"/>
        </g>
    </g>
</svg>

